<svg xmlns="http://www.w3.org/2000/svg" xmlns:xlink="http://www.w3.org/1999/xlink" viewBox="0 0 336.13 500"><defs><style>.cls-1{isolation:isolate;}.cls-2{fill:url(#linear-gradient);}.cls-3{fill:url(#linear-gradient-2);}.cls-4{fill:url(#linear-gradient-3);}.cls-5{fill:#500e0e;mix-blend-mode:multiply;}</style><linearGradient id="linear-gradient" x1="302.24" y1="155.16" x2="17.05" y2="440.35" gradientUnits="userSpaceOnUse"><stop offset="0" stop-color="#fffb90"/><stop offset="0.14" stop-color="#fbea78"/><stop offset="0.24" stop-color="#f8dc65"/><stop offset="0.27" stop-color="#e6c758"/><stop offset="0.34" stop-color="#c5a041"/><stop offset="0.4" stop-color="#ad8330"/><stop offset="0.45" stop-color="#9e7226"/><stop offset="0.49" stop-color="#996c22"/><stop offset="0.52" stop-color="#9d7126"/><stop offset="0.56" stop-color="#aa8131"/><stop offset="0.6" stop-color="#be9b42"/><stop offset="0.64" stop-color="#dabe5b"/><stop offset="0.69" stop-color="#fbe878"/><stop offset="0.77" stop-color="#ffa"/><stop offset="0.83" stop-color="#fbe878"/><stop offset="1" stop-color="#a4631b"/></linearGradient><linearGradient id="linear-gradient-2" x1="1.99" y1="253.96" x2="334.12" y2="253.96" xlink:href="#linear-gradient"/><linearGradient id="linear-gradient-3" x1="265.75" y1="240.24" x2="58.11" y2="447.88" xlink:href="#linear-gradient"/></defs><title>Roulette_pointer</title><g class="cls-1"><g id="圖層_1" data-name="圖層 1"><path class="cls-2" d="M328.64,337.94a160.59,160.59,0,0,1-321.17,0c0-88.69,160.59-324.28,160.59-324.28S328.64,249.25,328.64,337.94Z"/><path class="cls-3" d="M168.06,504C76.49,504,2,429.5,2,337.94c0-89.35,155-317.69,161.54-327.37l4.53-6.65,4.53,6.65c6.6,9.68,161.53,238,161.53,327.37C334.12,429.5,259.63,504,168.06,504Zm0-480.51C142,62.56,13,260.23,13,337.94,13,423.46,82.53,493,168.06,493s155.1-69.57,155.1-155.09C323.16,260.22,194.09,62.56,168.06,23.49Z"/><path class="cls-4" d="M310,337.94A141.94,141.94,0,1,1,168.06,196,141.94,141.94,0,0,1,310,337.94Z"/><path class="cls-5" d="M290.56,337.94a122.51,122.51,0,1,1-122.5-122.51A122.5,122.5,0,0,1,290.56,337.94Z"/></g></g></svg>